<?xml version="1.0" standalone="no"?><!DOCTYPE svg PUBLIC "-//W3C//DTD SVG 1.1//EN" "http://www.w3.org/Graphics/SVG/1.1/DTD/svg11.dtd"><svg t="1580848026231" class="icon" viewBox="0 0 1024 1024" version="1.1" xmlns="http://www.w3.org/2000/svg" p-id="880" xmlns:xlink="http://www.w3.org/1999/xlink" width="200" height="200"><defs><style type="text/css"></style></defs><path d="M423.212394 626.374813H60.897551c-14.328836 0-25.587206-11.258371-25.587206-25.587207s11.258371-25.587206 25.587206-25.587206h361.803099c14.328836 0 25.587206 11.258371 25.587206 25.587206s-11.258371 25.587206-25.075462 25.587207z" fill="#8a8a8a" p-id="881"></path><path d="M423.212394 988.689655c-14.328836 0-25.587206-11.258371-25.587207-25.587206v-361.803099c0-14.328836 11.258371-25.587206 25.587207-25.587206s25.587206 11.258371 25.587206 25.587206v361.803099c0 13.817091-11.770115 25.587206-25.587206 25.587206z" fill="#8a8a8a" p-id="882"></path><path d="M25.587206 1024c-6.652674 0-13.305347-2.558721-17.911044-7.676162-10.234883-10.234883-10.234883-26.098951 0-36.333833l398.136931-398.136932c10.234883-10.234883 26.098951-10.234883 36.333834 0s10.234883 26.098951 0 36.333834L43.498251 1016.323838c-4.605697 5.117441-11.258371 7.676162-17.911045 7.676162z" fill="#8a8a8a" p-id="883"></path><path d="M962.590705 449.311344h-361.803099c-14.328836 0-25.587206-11.258371-25.587206-25.587206s11.258371-25.587206 25.587206-25.587206h361.803099c14.328836 0 25.587206 11.258371 25.587206 25.587206s-11.770115 25.587206-25.587206 25.587206z" fill="#8a8a8a" p-id="884"></path><path d="M600.275862 449.311344c-14.328836 0-25.587206-11.258371-25.587206-25.587206V61.409295c0-14.328836 11.258371-25.587206 25.587206-25.587206s25.587206 11.258371 25.587206 25.587206v361.803099c0 14.328836-11.258371 26.098951-25.587206 26.09895z" fill="#8a8a8a" p-id="885"></path><path d="M599.764118 449.823088c-6.652674 0-13.305347-2.558721-17.911045-7.676161-10.234883-10.234883-10.234883-26.098951 0-36.333834l398.136932-398.136931c10.234883-10.234883 26.098951-10.234883 36.333833 0s10.234883 26.098951 0 36.333833l-398.136931 398.136932c-5.117441 5.117441-11.770115 7.676162-18.422789 7.676161z" fill="#8a8a8a" p-id="886"></path></svg>