<?xml version="1.0" standalone="no"?><!DOCTYPE svg PUBLIC "-//W3C//DTD SVG 1.1//EN" "http://www.w3.org/Graphics/SVG/1.1/DTD/svg11.dtd"><svg t="1580878234798" class="icon" viewBox="0 0 1825 1024" version="1.1" xmlns="http://www.w3.org/2000/svg" p-id="1307" xmlns:xlink="http://www.w3.org/1999/xlink" width="356.4453125" height="200"><defs><style type="text/css"></style></defs><path d="M702.403 1075.467l260.692 6.417c7.861-42.673 18.449-531.813-2.246-578.657-11.551-26.631-25.668-28.877-44.598-47.326-40.748-39.786-8.663-21.176-40.748-57.593l-91.282 0.16c-20.374 25.829-7.38 22.299-33.208 52.299-75.079 87.432-58.235 11.872-58.235 241.762 0.16 103.635 14.599 306.735 9.626 382.937z" p-id="1308" fill="#dbdbdb"></path><path d="M953.791 339.111c11.069-15.561-23.101-6.257 30-21.497 47.326-13.636 25.026-4.011 41.55-0.481l3.85-89.197c-63.85-4.652-155.453-4.973-217.377-0.16-81.496 6.417-110.534 33.529-117.432 114.063 46.524 27.754 60.16 33.369 128.983 33.85 130.747 0.802 56.149-14.599 130.426-36.577z" p-id="1309" fill="#dbdbdb"></path><path d="M953.791 339.111c12.513 32.246 21.497 53.101 39.786 79.090 22.46 31.604 36.096 53.422 71.55 44.759l-65.775-131.549-45.561 7.7z" p-id="1310" fill="#dbdbdb"></path><path d="M1038.496 305.101l54.705-3.85c0.642-49.572 5.936-45.561-9.144-82.78-63.047 6.257-28.716 1.283-45.561 86.63z" p-id="1311" fill="#dbdbdb"></path><path d="M1263.414 193.124c0 12.404 10.056 22.46 22.46 22.46s22.46-10.056 22.46-22.46c0-12.404-10.056-22.46-22.46-22.46-12.404 0-22.46 10.056-22.46 22.46z" p-id="1312" fill="#dbdbdb"></path><path d="M1263.414 260.663c0 12.404 10.056 22.46 22.46 22.46s22.46-10.056 22.46-22.46c0-12.404-10.056-22.46-22.46-22.46-12.404 0-22.46 10.056-22.46 22.46z" p-id="1313" fill="#dbdbdb"></path><path d="M1263.414 324.513c0 12.404 10.056 22.46 22.46 22.46s22.46-10.056 22.46-22.46c0-12.404-10.056-22.46-22.46-22.46-12.404 0-22.46 10.056-22.46 22.46z" p-id="1314" fill="#dbdbdb"></path><path d="M1204.216 292.909c0 12.404 10.056 22.46 22.46 22.46s22.46-10.056 22.46-22.46c0-12.404-10.056-22.46-22.46-22.46-12.404 0-22.46 10.056-22.46 22.46z" p-id="1315" fill="#dbdbdb"></path><path d="M1206.142 222.321c0 12.404 10.056 22.46 22.46 22.46s22.46-10.056 22.46-22.46c0-12.404-10.056-22.46-22.46-22.46-12.404 0-22.46 10.056-22.46 22.46z" p-id="1316" fill="#dbdbdb"></path><path d="M1140.367 256.332c0 0 0 0 0 0 0 12.404 10.056 22.46 22.46 22.46 12.404 0 22.46-10.056 22.46-22.46 0 0 0 0 0 0 0 0 0 0 0 0 0-12.404-10.056-22.46-22.46-22.46-12.404 0-22.46 10.056-22.46 22.46s0 0 0 0z" p-id="1317" fill="#dbdbdb"></path></svg>